<svg version="1.2" xmlns="http://www.w3.org/2000/svg" viewBox="0 0 1080 1080" width="1080" height="1080">
	<style>
		.s0 { fill: #f8b202 } 
		.s1 { fill: #d6b98c } 
		.s2 { fill: #195062 } 
	</style>
	<g id="Layer 1">
		<path id="Forme 5" fill-rule="evenodd" class="s0" d="m412.88 398.23l83.84 13.25 81.19 92.82 0.18 16.66 53.33-24.35 171.56-20.07c0 0-15.38-152.84-163.87-185.28-156.65-34.22-226.23 106.97-226.23 106.97z"/>
		<path id="Forme 3" fill-rule="evenodd" class="s1" d="m30.54 672.89c0 0 178.45-81.16 501.27 1.55 283.06 72.52 438.43-3.96 438.43-3.96 0 0-139.84 27.27-425.17-34.25-339.99-73.3-514.53 36.66-514.53 36.66z"/>
		<path id="Forme 4" fill-rule="evenodd" class="s2" d="m61.31 676.58c-0.09 0 90.57-33.47 225.87-23.98 76.85 5.39 172.64 21.9 229.91 36.21 96.18 24.05 193.53 28.68 224.86 26.11 131.39-10.76 330.13-74.11 330.13-74.11 0 0-116.22 89.27-330.97 102.74-61.79 3.88-89.27 5.06-195.39-8.42-96.4-12.24-178.61-46.7-254.33-57.26-141.78-19.79-230.08-1.29-230.08-1.29z"/>
		<path id="Forme 1" fill-rule="evenodd" class="s2" d="m26.08 651.82l-0.45-161.07 36.58-134.87 429.23 66.32 74.33 87.97-0.14 109.89c0 0-108.23-29.55-267.13-29.55-147.32 6.43-272.42 61.31-272.42 61.31zm52.51-279.09l56.4 97.65 4.78 110.88 6.8-103.7 194.89 14.93-194.19-27.05z"/>
		<path id="Forme 2" fill-rule="evenodd" class="s1" d="m565.65 620.08l0.15-81.54 70.47-31.22 336.39-39.2 75.35 48.63-0.22 110.51c0 0-66.14 25.99-188.52 23.64-182.35-3.5-293.62-30.82-293.62-30.82zm398.09-142.32l-57.79 51.43-3.25 86.52-6.85-82.56-132.66 2.89 134.11-14.06z"/>
	</g>
</svg>